<svg id="Layer_9" data-name="Layer 9" xmlns="http://www.w3.org/2000/svg" viewBox="0 0 401.08777 103.41694"><defs><style>.cls-1{fill:#fff;}</style></defs><title>404</title><path class="cls-1" d="M501.30646,261.7a4.44536,4.44536,0,0,1-.72.97c-.13.13-.26.26-.39.37C500.57648,262.6,500.94647,262.15,501.30646,261.7Z" transform="translate(-153.00977 -177.39568)"/><path class="cls-1" d="M468.17073,208.55255a18.74635,18.74635,0,0,1-17.54521,4.00759A4.69014,4.69014,0,0,1,447.346,209.318c-2.15457-6.38121.69725-15.50366,6.06659-19.48293a1.58119,1.58119,0,0,1,2.36835.65029C458.00731,199.89364,459.98913,202.802,468.17073,208.55255Z" transform="translate(-153.00977 -177.39568)"/><path class="cls-1" d="M456.65266,177.396a3.62838,3.62838,0,0,1,3.60581,3.66667,3.71656,3.71656,0,1,1-3.60581-3.66667Z" transform="translate(-153.00977 -177.39568)"/><path class="cls-1" d="M510.38647,218.24a14.54114,14.54114,0,0,1-8.97,11.02c-1.04.41-2.1.74-3.3,1.16.41.91.81,1.76,1.2,2.62,3.81391,8.411,6.8778,23.12881.18612,30.87847a47.30691,47.30691,0,0,1-14.57612,10.93913c-5.78172,2.866-11.5348,3.799-17.79,4.90246a62.88815,62.88815,0,0,1-28.48-1.27c-8.84-2.52-14.56-8.32-17.02-17.22a41.419,41.419,0,0,1-1.29-6.88,42.84985,42.84985,0,0,1,1.13-14.57c.07-.27.13-.54.18-.82a4.91893,4.91893,0,0,0,0-.57,17.93853,17.93853,0,0,1-6.9-1.64,14.05082,14.05082,0,0,1-4.67-3.65,13.70572,13.70572,0,0,1-3.34-7.94,14.46659,14.46659,0,0,1,12.74-15.76,14.19182,14.19182,0,0,1,7.45,1.13c3.67005,1.57995,6.05,4.48,7.82,7.85,2.91-1.88,5.72-3.68,8.53-5.5.59.72.98,1.21,1.39,1.69,2.2,2.56,5.21,3.3,8.36,3.59a23.52328,23.52328,0,0,0,19.72-7.06,1.23541,1.23541,0,0,1,1.57-.32c2.36.96,4.73,1.9,7.22,2.88995.29-.84.57995-1.69.88-2.54a14.47213,14.47213,0,0,1,15.01-9.75,13.31765,13.31765,0,0,1,5.98,1.86,14.7614,14.7614,0,0,1,6.87,9.6A13.83919,13.83919,0,0,1,510.38647,218.24Z" transform="translate(-153.00977 -177.39568)"/><path class="cls-1" d="M525.28125,259.89258a4.06381,4.06381,0,0,1,2.28125,1.89844,3.85749,3.85749,0,0,1,.26758,3.28125,3.33226,3.33226,0,0,1-1.916,2.07519,4.05385,4.05385,0,0,1-2.99218.17188,4.118,4.118,0,0,1-2.38477-1.99024,3.65275,3.65275,0,0,1-.35742-3.01758,3.57973,3.57973,0,0,1,1.99609-2.24414A4.15947,4.15947,0,0,1,525.28125,259.89258Zm17.33594-43.89453a16.72253,16.72253,0,0,1,9.38867,7.09863,12.55957,12.55957,0,0,1-1.75977,15.88867,19.16185,19.16185,0,0,1-4.86523,3.39746q-2.63232,1.273-7.2793,3.01563a22.06152,22.06152,0,0,0-6.78515,3.64551,9.04616,9.04616,0,0,0-2.76172,3.85546q-.999,3.12745-2.81055,2.54688a1.39475,1.39475,0,0,1-1.082-1.14746,9.73978,9.73978,0,0,1,.69727-3.39746,11.70987,11.70987,0,0,1,3.02539-4.74512,28.8407,28.8407,0,0,1,7.6123-4.76367q5.55615-2.68359,7.61328-5.13477a15.69059,15.69059,0,0,0,2.97754-5.3291,10.20768,10.20768,0,0,0-.1543-6.83887,7.10357,7.10357,0,0,0-4.72851-4.50781,9.91435,9.91435,0,0,0-7.3584.10449,7.76619,7.76619,0,0,0-4.25293,4.92383,6.40531,6.40531,0,0,0-.20508,3.54492,2.62174,2.62174,0,0,0,1.73828,2.05957,2.361,2.361,0,0,0,.81055.123,2.0993,2.0993,0,0,1,.73926.09961,2.9539,2.9539,0,0,1,1.46777,1.14941,1.84916,1.84916,0,0,1,.38477,1.69825,2.6897,2.6897,0,0,1-2.04688,1.85254,6.06533,6.06533,0,0,1-3.39844-.17481,6.24206,6.24206,0,0,1-3.88281-3.82226q-1.24512-2.978.13867-7.30274a12.10529,12.10529,0,0,1,6.23829-7.30469A13.3301,13.3301,0,0,1,542.61719,215.99805Z" transform="translate(-153.00977 -177.39568)"/><path class="cls-1" d="M253.86182,209.398h1.56689v14.979h2.98047V227.625h-2.98047v8.80811h-3.72558V227.625h-11.292v-1.64307Zm-2.15869,14.979v-7.73632l-6.17676,7.73632Z" transform="translate(-153.00977 -177.39568)"/><path class="cls-1" d="M269.47168,209.398q3.6687,0,6.06641,3.84961a21.328,21.328,0,0,1,0,19.65088q-2.398,3.802-6.21924,3.80224a7.10284,7.10284,0,0,1-6.22852-3.72558q-2.35033-3.72584-2.3501-9.87793a18.143,18.143,0,0,1,2.42676-9.8877Q265.59277,209.398,269.47168,209.398Zm.03857,3.62988h-.1914q-2.19727,0-3.48682,2.70362a17.25459,17.25459,0,0,0-1.28955,7.32714,17.86952,17.86952,0,0,0,1.26123,7.43262q1.26049,2.69385,3.477,2.69385,2.21631,0,3.49658-2.69385a17.30543,17.30543,0,0,0,1.28028-7.31787,18.37759,18.37759,0,0,0-1.23242-7.394Q271.59253,213.02758,269.51025,213.02783Z" transform="translate(-153.00977 -177.39568)"/><path class="cls-1" d="M292.99121,209.398h1.5669v14.979h2.98046V227.625h-2.98046v8.80811h-3.72559V227.625h-11.292v-1.64307Zm-2.15869,14.979v-7.73632l-6.17676,7.73632Z" transform="translate(-153.00977 -177.39568)"/><path class="cls-1" d="M153.00977,267.43311v-26.7295h8.46386a8.72115,8.72115,0,0,1,6.09473,2.06348,7.115,7.115,0,0,1,2.27393,5.54053,7.4113,7.4113,0,0,1-1.16553,4.127,6.663,6.663,0,0,1-3.19092,2.60791,16.22073,16.22073,0,0,1-5.80811.812H156.8501v11.57862Zm7.79492-23.32862H156.8501v8.34912h4.18408a5.29885,5.29885,0,0,0,3.5918-1.09863,3.94259,3.94259,0,0,0,1.26123-3.14258Q165.88721,244.10425,160.80469,244.10449Z" transform="translate(-153.00977 -177.39568)"/><path class="cls-1" d="M183.73242,256.86719v7.4707q0,.89794.61133.89795a4.209,4.209,0,0,0,1.96777-.936v2.12061a11.36616,11.36616,0,0,1-1.90088,1.0415,4.12841,4.12841,0,0,1-1.5.27686q-2.23534,0-2.63671-1.75781a7.56752,7.56752,0,0,1-4.71924,1.71972,4.16474,4.16474,0,0,1-3.05713-1.21338,4.11643,4.11643,0,0,1-1.22266-3.04736,4.2875,4.2875,0,0,1,1.19434-2.97119,8.08011,8.08011,0,0,1,3.39111-2.07275l4.45166-1.52881v-.936q0-3.17139-3.17138-3.17187-2.84692,0-5.541,2.94238V251.8999a7.216,7.216,0,0,1,5.82764-2.38867,6.72665,6.72665,0,0,1,4.5664,1.49072,4.67844,4.67844,0,0,1,1.03174,1.27051,4.58441,4.58441,0,0,1,.58252,1.58545A23.4142,23.4142,0,0,1,183.73242,256.86719Zm-3.42041,7.08838v-5.21582l-2.33056.89795a7.87687,7.87687,0,0,0-2.5127,1.42334,2.57451,2.57451,0,0,0-.03809,3.56347,2.46125,2.46125,0,0,0,1.80567.688A4.36968,4.36968,0,0,0,180.312,263.95557Z" transform="translate(-153.00977 -177.39568)"/><path class="cls-1" d="M188.49023,255.93115a5.37351,5.37351,0,0,1,2.05372-4.44238,8.77337,8.77337,0,0,1,5.60791-1.6333h7.24121v2.71289h-3.55371A7.27348,7.27348,0,0,1,201.272,254.479a4.6029,4.6029,0,0,1,.40137,1.96778,5.26482,5.26482,0,0,1-.7832,2.70361,5.51792,5.51792,0,0,1-2.01563,2.03516,12.29782,12.29782,0,0,1-4.041,1.127q-1.968.28712-1.96827,1.35645a1.15019,1.15019,0,0,0,.73584,1.00341,11.62358,11.62358,0,0,0,2.665.812,28.86607,28.86607,0,0,1,4.15577,1.10791,5.37054,5.37054,0,0,1,1.67187,1.14648,4.30039,4.30039,0,0,1,1.26074,3.17187,4.5906,4.5906,0,0,1-2.22558,3.99317,10.54889,10.54889,0,0,1-5.95166,1.49023,10.6654,10.6654,0,0,1-6.00879-1.5,4.61944,4.61944,0,0,1-2.24512-4.022q0-3.57276,4.41357-4.60449-1.7578-1.1272-1.75781-2.23535a2.0377,2.0377,0,0,1,.75488-1.52832,4.665,4.665,0,0,1,2.03467-1.0127Q188.48974,259.77149,188.49023,255.93115Zm5.71241,12.32373A5.08506,5.08506,0,0,0,191.32715,269a2.22424,2.22424,0,0,0-1.11768,1.91064q0,2.71216,4.89112,2.7129a7.72206,7.72206,0,0,0,3.58252-.67823,2.101,2.101,0,0,0,1.2705-1.92041q0-1.22241-1.60449-1.99658A9.584,9.584,0,0,0,194.20264,268.25488Zm.82177-15.38086a3.34561,3.34561,0,0,0-2.40722.95557,3.06728,3.06728,0,0,0-.99365,2.29248,2.90719,2.90719,0,0,0,.97412,2.24512,3.51889,3.51889,0,0,0,2.46484.88867,3.48265,3.48265,0,0,0,2.45508-.90772,2.95181,2.95181,0,0,0,.98437-2.26416,2.99264,2.99264,0,0,0-.99365-2.293A3.52242,3.52242,0,0,0,195.02441,252.874Z" transform="translate(-153.00977 -177.39568)"/><path class="cls-1" d="M221.06592,258.94971H208.7041a5.74043,5.74043,0,0,0,1.69092,4.01269,5.57878,5.57878,0,0,0,4.022,1.49024,10.46355,10.46355,0,0,0,6.34326-2.14014v3.40088a11.59285,11.59285,0,0,1-3.18115,1.52881,13.30174,13.30174,0,0,1-3.69678.45849,8.29808,8.29808,0,0,1-4.70019-1.20361,8.75266,8.75266,0,0,1-2.87549-3.23877,9.89946,9.89946,0,0,1-1.07959-4.70947,9.352,9.352,0,0,1,2.27344-6.5249,7.5935,7.5935,0,0,1,5.90381-2.5127,6.95552,6.95552,0,0,1,5.5791,2.4458,9.771,9.771,0,0,1,2.08252,6.55322Zm-12.28516-2.08252H217.627a4.85714,4.85714,0,0,0-1.2417-3.20948,3.99115,3.99115,0,0,0-2.981-1.12744,4.286,4.286,0,0,0-3.06641,1.12744A5.58,5.58,0,0,0,208.78076,256.86719Z" transform="translate(-153.00977 -177.39568)"/><path class="cls-1" d="M239.17871,249.85547v2.23535a6.98934,6.98934,0,0,1,5.29248-2.57959,5.82822,5.82822,0,0,1,3.05713.85059,5.54691,5.54691,0,0,1,2.14941,2.33105,11.14372,11.14372,0,0,1,.73584,4.69043v10.04981H246.936V257.42139a6.84232,6.84232,0,0,0-.82178-3.8501,3.14143,3.14143,0,0,0-2.751-1.15576,5.01062,5.01062,0,0,0-4.18457,2.46484v12.55274H235.625V249.85547Z" transform="translate(-153.00977 -177.39568)"/><path class="cls-1" d="M263.67285,249.81689a9.16687,9.16687,0,0,1,6.668,2.58936,8.707,8.707,0,0,1,2.65576,6.50537,8.26987,8.26987,0,0,1-2.69385,6.31494,9.55735,9.55735,0,0,1-6.78271,2.51221,9.16741,9.16741,0,0,1-6.61084-2.55078,9.00659,9.00659,0,0,1,.02881-12.80127A9.352,9.352,0,0,1,263.67285,249.81689Zm-.1914,3.13379a5.49358,5.49358,0,0,0-4.10743,1.64307,5.73942,5.73942,0,0,0-1.605,4.18408,5.48479,5.48479,0,0,0,1.64307,4.11768,5.80883,5.80883,0,0,0,4.22217,1.59521,5.71359,5.71359,0,0,0,4.19385-1.61426,5.97763,5.97763,0,0,0-.0669-8.28271A5.91185,5.91185,0,0,0,263.48145,252.95068Z" transform="translate(-153.00977 -177.39568)"/><path class="cls-1" d="M274.3916,252.645l6.53418-6.41992v3.63037h5.56006v3.1333h-5.56006v8.603q0,3.01319,2.50293,3.01367a7.76126,7.76126,0,0,0,3.95508-1.24219v3.24805a8.777,8.777,0,0,1-4.37549,1.12744,5.79877,5.79877,0,0,1-3.97412-1.39453,3.974,3.974,0,0,1-.82129-.9458,5.00091,5.00091,0,0,1-.54443-1.376,15.43885,15.43885,0,0,1-.21973-3.23828v-7.79541H274.3916Z" transform="translate(-153.00977 -177.39568)"/><path class="cls-1" d="M301.15918,249.85547v-1.05078q0-4.24219,1.80566-6.32422a5.54342,5.54342,0,0,1,4.32764-2.08252,11.7008,11.7008,0,0,1,2.57959.34375v3.40088a4.70273,4.70273,0,0,0-1.605-.30567,3.28844,3.28844,0,0,0-2.8374,1.08887,6.90753,6.90753,0,0,0-.793,3.87891v1.05078H307.77v3.1333h-3.1333v14.44434h-3.47754V252.98877h-2.522v-3.1333Z" transform="translate(-153.00977 -177.39568)"/><path class="cls-1" d="M318.56543,249.81689a9.16688,9.16688,0,0,1,6.668,2.58936,8.707,8.707,0,0,1,2.65576,6.50537,8.26987,8.26987,0,0,1-2.69385,6.31494,9.55739,9.55739,0,0,1-6.78271,2.51221,9.16741,9.16741,0,0,1-6.61084-2.55078,9.00659,9.00659,0,0,1,.02881-12.80127A9.352,9.352,0,0,1,318.56543,249.81689Zm-.19141,3.13379a5.49357,5.49357,0,0,0-4.10742,1.64307,5.73942,5.73942,0,0,0-1.605,4.18408,5.48475,5.48475,0,0,0,1.64307,4.11768,5.80883,5.80883,0,0,0,4.22217,1.59521,5.71356,5.71356,0,0,0,4.19384-1.61426,5.97761,5.97761,0,0,0-.06689-8.28271A5.91186,5.91186,0,0,0,318.374,252.95068Z" transform="translate(-153.00977 -177.39568)"/><path class="cls-1" d="M342.94482,267.43311v-2.2544a8.11467,8.11467,0,0,1-2.53173,1.88623,6.58645,6.58645,0,0,1-2.83741.67383,5.91079,5.91079,0,0,1-3.0664-.83106,5.39711,5.39711,0,0,1-2.12061-2.25439,11.28662,11.28662,0,0,1-.71679-4.729V249.85547h3.47753v10.01807a6.89471,6.89471,0,0,0,.793,3.86376,3.20469,3.20469,0,0,0,2.77979,1.09717,5.08667,5.08667,0,0,0,4.22265-2.42627V249.85547h3.47706v17.57764Z" transform="translate(-153.00977 -177.39568)"/><path class="cls-1" d="M354.79053,249.85547v2.23535a6.98934,6.98934,0,0,1,5.29248-2.57959,5.82824,5.82824,0,0,1,3.05713.85059,5.54691,5.54691,0,0,1,2.14941,2.33105,11.14372,11.14372,0,0,1,.73584,4.69043v10.04981h-3.47754V257.42139a6.84223,6.84223,0,0,0-.82178-3.8501,3.14141,3.14141,0,0,0-2.751-1.15576,5.01061,5.01061,0,0,0-4.18457,2.46484v12.55274h-3.55371V249.85547Z" transform="translate(-153.00977 -177.39568)"/><path class="cls-1" d="M382.60938,240.7417H386.106v26.69141h-7.43213a8.13759,8.13759,0,0,1-6.21924-2.46485,9.24826,9.24826,0,0,1-2.32129-6.61084,8.772,8.772,0,0,1,2.436-6.38135,8.30373,8.30373,0,0,1,6.21875-2.50293,11.31531,11.31531,0,0,1,3.82129.74512Zm0,23.71094V253.31348a7.2145,7.2145,0,0,0-3.28614-.82129,5.30333,5.30333,0,0,0-4.13672,1.70019,6.57883,6.57883,0,0,0-1.53759,4.58545,6.00262,6.00262,0,0,0,1.3374,4.18457,4.1377,4.1377,0,0,0,1.70019,1.18457,11.48134,11.48134,0,0,0,3.229.30567Z" transform="translate(-153.00977 -177.39568)"/></svg>