<svg  xmlns="http://www.w3.org/2000/svg" viewBox="0 0 413.22607 98.80176">
<title>dreamlog</title>
<defs>
<style>
.cls-1{fill:#fff; }</style>
</defs>
<path class="cls-1" d="M368.85254,184.86768l6.51465,2.749a32.99407,32.99407,0,0,0,5.167,1.85791,16.41214,16.41214,0,0,0,3.84375.4834q8.45361,0,13.57227-11.07129a55.89985,55.89985,0,0,0,5.11816-23.74609q0-13.38648-6.49023-21.55713a20.65151,20.65151,0,0,0-16.97657-8.16944q-8.39794,0-15.7539,6.03174-7.35645,6.03223-7.35547,12.751,0,5.03979,4.27636,6.87207,1.83252.86572,1.832,2.29053,0,1.47656-3.9961,3.20654a20.33208,20.33208,0,0,1-4.86084,1.731q-2.59571,0-4.58105-3.02881a11.952,11.952,0,0,1-1.98535-6.69385q0-9.72144,10.15478-18.45166,10.15577-8.72974,26.44434-8.73,15.57569,0,24.83984,8.57715,9.26367,8.57739,9.26465,22.98242a40.97186,40.97186,0,0,1-5.72656,20.87012A43.23765,43.23765,0,0,1,396.73047,189.5a39.3635,39.3635,0,0,1-20.53906,5.80273,37.289,37.289,0,0,1-17.001-3.97021q-6.364,3.97046-11.0459,3.97021a6.66282,6.66282,0,0,1-4.4541-1.52685,4.69453,4.69453,0,0,1-1.80713-3.71582q0-3.5625,3.71582-6.00684a16.61422,16.61422,0,0,1,9.31543-2.44336,22.67716,22.67716,0,0,1,7.58447,1.273,13.33824,13.33824,0,0,0,4.377-6.36279,85.21688,85.21688,0,0,0,2.34179-13.13281q1.17042-9.41675,3.665-14.813a23.41761,23.41761,0,0,1,7.35547-9.03516,20.17575,20.17575,0,0,1,9.79883-4.19922l1.98535,2.69776a23.86732,23.86732,0,0,0-4.70508,6.5166q-1.5498,3.30908-2.80566,14.22607-1.25538,10.919-4.792,16.39063A30.99635,30.99635,0,0,1,368.85254,184.86768Z" transform="translate(-341.8833 -121.39258)"/>
<path class="cls-1" d="M458.39941,182.78076q-12.77783,12.52222-19.69921,12.522a6.52922,6.52922,0,0,1-5.24317-2.62158,9.92871,9.92871,0,0,1-2.13769-6.48974q0-7.17774,7.68554-19.24121a28.34828,28.34828,0,0,1-8.24609,2.69775A58.58135,58.58135,0,0,1,420.375,182.78076h-1.1709v-4.581a66.62338,66.62338,0,0,0,7.17676-8.85694q-4.377-1.93432-4.37695-5.75195a16.4212,16.4212,0,0,1,2.67187-8.37353q2.67335-4.45386,7.35547-4.45411,3.97119,0,3.9707,4.07227,0,3.20654-2.291,9.1626,8.44922-.91626,14.76172-12.9292l4.63281-.20362L448.37109,163.896q-2.95312,8.24633-3.81738,11.22412a19.12921,19.12921,0,0,0-.86523,5.26855,5.39471,5.39471,0,0,0,.99218,3.41016,3.21319,3.21319,0,0,0,2.67286,1.27246,5.80484,5.80484,0,0,0,3.51171-1.24707q1.68018-1.24659,7.53418-6.897Z" transform="translate(-341.8833 -121.39258)"/>
<path class="cls-1" d="M496.47461,182.78076a62.839,62.839,0,0,1-11.60645,9.3916,21.95631,21.95631,0,0,1-11.35058,3.02881,14.777,14.777,0,0,1-11.17383-4.42871q-4.251-4.42822-4.25-11.65674a29.24841,29.24841,0,0,1,7.48242-19.521q7.48242-8.729,16.59473-8.7295a11.25433,11.25433,0,0,1,7.584,2.44336,8.03742,8.03742,0,0,1,2.85059,6.41358q0,10.53661-22.39649,17.103,2.03467,9.92577,10.6377,9.92626a12.40994,12.40994,0,0,0,6.41406-1.80712q3.05421-1.80617,9.21387-8.01709Zm-26.67285-9.417q13.02978-3.665,13.03027-13.54,0-4.88672-3.5625-4.88672-3.36034,0-6.41406,5.11572Q469.80128,165.1687,469.80176,173.36377Z" transform="translate(-341.8833 -121.39258)"/>
<path class="cls-1" d="M550.83789,182.78076q-8.14454,7.738-11.65625,10.07862a12.1991,12.1991,0,0,1-6.71973,2.34179q-8.04345,0-7.584-14.20215a52.52556,52.52556,0,0,1-9.3916,10.74073,14.04319,14.04319,0,0,1-8.88281,3.46142q-4.4795,0-7.60938-4.19971a16.75983,16.75983,0,0,1-3.13086-10.30761,27.65027,27.65027,0,0,1,4.19922-14.55811A34.522,34.522,0,0,1,510.8291,154.937q6.56543-4.27515,11.60547-4.27539a9.00434,9.00434,0,0,1,8.9082,5.85352l10.40332-5.752h2.85645l-4.49024,14.915q-3.46875,11.25073-3.46875,15.42432,0,4.37622,3.10352,4.376a6.94161,6.94161,0,0,0,4.375-2.11231q2.39063-2.11157,6.71582-6.439Zm-37.26074,2.79981q5.09033,0,9.5957-8.67871,4.5044-8.67847,4.50488-16.00879a6.99594,6.99594,0,0,0-1.27246-4.45411,4.13144,4.13144,0,0,0-3.41113-1.60351q-5.09033,0-9.64551,8.65332-4.55566,8.65429-4.55566,15.93262a6.96679,6.96679,0,0,0,1.34863,4.4541A4.19267,4.19267,0,0,0,513.57715,185.58057Z" transform="translate(-341.8833 -121.39258)"/>
<path class="cls-1" d="M625.76563,182.78076a86.79256,86.79256,0,0,1-10.89258,9.31543,15.62486,15.62486,0,0,1-8.80664,3.105,6.60559,6.60559,0,0,1-5.31934-2.3164,9.33419,9.33419,0,0,1-1.959-6.23536q0-5.49755,2.748-13.94726,2.74952-8.44921,2.749-10.28223a1.46269,1.46269,0,0,0-1.67969-1.6289,2.832,2.832,0,0,0-1.2207.35644,12.52355,12.52355,0,0,0-1.73047,1.01807,26.44119,26.44119,0,0,0-2.08692,1.73047q-1.11913,1.0188-2.34082,2.34179-1.32421,1.32423-2.64746,2.90186a11.60923,11.60923,0,0,0-2.64551,4.42871l-1.69336,7.28125-3.07714,12.01611-12.89551,2.33545,4.9375-20.97168q.55957-2.291,1.32324-6.71924a51.02009,51.02009,0,0,0,.76367-5.29394q0-1.73-1.1709-1.73047a2.42,2.42,0,0,0-1.01757.356,10.49681,10.49681,0,0,0-1.73047,1.06884q-1.1206.81519-2.39258,1.93457-1.374,1.22169-2.95215,2.79981-1.68018,1.67944-3.46191,3.71582a12.57234,12.57234,0,0,0-3.05371,6.41357q-.81592,4.37843-1.12012,7.83887-.35742,3.46216-.40723,7.73731l-11.30078,2.69775q-.40722-5.85279-.40723-9.77344a60.38513,60.38513,0,0,1,1.93457-16.2124,103.98786,103.98786,0,0,1,6.3125-16.11035l12.31836-2.39258a114.74245,114.74245,0,0,0-5.1416,16.03418q13.69189-15.93164,20.97168-15.93213a5.172,5.172,0,0,1,4.30176,2.16309,9.10333,9.10333,0,0,1,1.6543,5.67578q0,1.62963-.50977,6.00635,8.606-8.60157,12.34863-11.22413a12.31631,12.31631,0,0,1,6.90039-2.62109,5.59469,5.59469,0,0,1,4.582,2.24024,8.87351,8.87351,0,0,1,1.7832,5.70214q0,5.4485-2.99707,14.002-2.99707,8.55394-2.9961,11.29883,0,2.84619,2.084,2.84667,1.31982,0,3.68359-1.75634a79.35968,79.35968,0,0,0,8.25782-8.06787Z" transform="translate(-341.8833 -121.39258)"/>
<path class="cls-1" d="M659.46387,182.78076a73.13433,73.13433,0,0,1-12.14063,9.3916,19.896,19.896,0,0,1-9.95117,3.02881,10.63691,10.63691,0,0,1-8.78027-4.2251q-3.33546-4.2246-3.335-11.35107,0-10.68969,4.63281-25.65479a163.16385,163.16385,0,0,1,11.249-27.58935l12.92969-4.78467a3.2443,3.2443,0,0,1,.916-.20361q1.47508,0,2.418,2.16357a14.882,14.882,0,0,1,.94141,5.82813,45.02266,45.02266,0,0,1-4.78516,20.10644q-4.78417,9.72291-14.96484,20.76807-.40869,5.29467-.40723,7.2793a13.11565,13.11565,0,0,0,1.62891,7.02441,4.92569,4.92569,0,0,0,4.32715,2.59619,10.97958,10.97958,0,0,0,5.85351-1.98535,69.71366,69.71366,0,0,0,9.46778-8.24609Zm-19.4961-19.90283A62.09515,62.09515,0,0,0,650.4541,146.77q4.021-8.9209,4.02149-15.34326a6.96918,6.96918,0,0,0-.56055-3.03369q-.55957-1.14624-1.42481-1.14649-1.88378,0-5.47168,9.3794Q643.4297,146.00537,639.96777,162.87793Z" transform="translate(-341.8833 -121.39258)"/>
<path class="cls-1" d="M705.17383,182.78076a17.04929,17.04929,0,0,1-5.03906,3.23242,11.56124,11.56124,0,0,1-3.86914.9419,11.71712,11.71712,0,0,1-7.27833-2.85059q-7.33006,11.09692-16.79785,11.09668a11.828,11.828,0,0,1-9.57031-4.42871q-3.665-4.42822-3.665-11.7583a27.31232,27.31232,0,0,1,8.24707-19.92822,26.763,26.763,0,0,1,19.69922-8.32276,15.85663,15.85663,0,0,1,6.33691.9419,4.37339,4.37339,0,0,1,2.46875,2.21435,9.575,9.575,0,0,1,.458,3.20655q0,9.51928-5.1914,23.36425a7.97107,7.97107,0,0,0,5.44629,2.39258q3.40869,0,8.75488-5.95556ZM688.376,154.32666a6.131,6.131,0,0,0-2.18848-.30566q-6.61816,0-10.3584,6.92285a33.538,33.538,0,0,0-3.74219,16.187,16.23523,16.23523,0,0,0,1.62891,7.9917,5.01422,5.01422,0,0,0,4.53027,2.8501q3.61377,0,7.83985-6.668a20.35685,20.35685,0,0,1-4.78516-12.9292Q681.30078,160.23169,688.376,154.32666Z" transform="translate(-341.8833 -121.39258)"/>
<path class="cls-1" d="M755.10938,182.78076a39.27874,39.27874,0,0,1-15.4668,9.97363q-4.22607,13.18579-10.71778,20.3125-6.49218,7.12721-13.77148,7.12745a8.58027,8.58027,0,0,1-6.416-2.49463,8.9809,8.9809,0,0,1-2.44335-6.56641q0-5.447,4.86035-9.77295,4.86034-4.32714,16.51855-8.34814l2.18848-10.02783a55.94252,55.94252,0,0,1-8.4502,8.06787,12.18978,12.18978,0,0,1-7.17675,2.5708,8.08878,8.08878,0,0,1-6.92286-3.97022q-2.69823-3.97045-2.69824-10.33349,0-10.38356,7.91309-19.47022,7.91308-9.0857,16.81836-9.08594a11.58211,11.58211,0,0,1,8.75195,4.17383q2.28956-.813,5.9541-2.44287l3.61231-1.62891H748.834a90.84743,90.84743,0,0,0-3.04785,11.70752l-4.77246,25.502q6.87012-2.5957,14.09571-11.14746ZM726.60352,197.4917q-16.44288,5.904-16.44141,13.6416a5.22006,5.22006,0,0,0,1.374,3.7417,4.62826,4.62826,0,0,0,3.5127,1.45068q3.665,0,6.3623-4.63232Q724.10938,207.06079,726.60352,197.4917Zm-4.27539-13.03125q3.61375,0,6.41308-4.27539a34.05871,34.05871,0,0,0,4.35254-10.84229,47.54136,47.54136,0,0,0,1.55273-9.11181,6.28042,6.28042,0,0,0-1.19628-3.94483,3.62956,3.62956,0,0,0-2.97852-1.55273q-5.395,0-9.416,7.2793a30.30657,30.30657,0,0,0-4.02148,14.8125,9.52352,9.52352,0,0,0,1.4502,5.57373A4.48671,4.48671,0,0,0,722.32813,184.46045Z" transform="translate(-341.8833 -121.39258)"/>
</svg>
