<svg xmlns="http://www.w3.org/2000/svg" viewBox="0 0 625.59397 156.19355"><defs><style>.cls-1{fill:#fff;}</style></defs><title>Asset 2</title><g id="Layer_2" data-name="Layer 2"><g id="Layer_8" data-name="Layer 8"><path class="cls-1" d="M239.33714,97.54366l6.51465,2.749a32.993,32.993,0,0,0,5.167,1.85791,16.41214,16.41214,0,0,0,3.84375.4834q8.45361,0,13.57226-11.07129A55.89971,55.89971,0,0,0,273.553,67.81661q0-13.38648-6.49024-21.55713A20.65149,20.65149,0,0,0,250.08616,38.09q-8.39795,0-15.75391,6.03174-7.35643,6.03224-7.35546,12.751,0,5.03979,4.27636,6.87207,1.83252.86572,1.832,2.29053,0,1.47655-3.99609,3.20654a20.33158,20.33158,0,0,1-4.86084,1.731q-2.59571,0-4.58105-3.02881a11.952,11.952,0,0,1-1.98536-6.69385q0-9.72144,10.15479-18.45166,10.15577-8.72973,26.44434-8.73,15.57567,0,24.83984,8.57715,9.26367,8.57739,9.26465,22.98242a40.97178,40.97178,0,0,1-5.72657,20.87012A43.23755,43.23755,0,0,1,267.21507,102.176a39.36354,39.36354,0,0,1-20.53907,5.80274,37.289,37.289,0,0,1-17.001-3.97022q-6.364,3.97045-11.0459,3.97022a6.66283,6.66283,0,0,1-4.4541-1.52686,4.69453,4.69453,0,0,1-1.80713-3.71582q0-3.5625,3.71582-6.00684a16.61422,16.61422,0,0,1,9.31543-2.44336,22.67716,22.67716,0,0,1,7.58447,1.273,13.33815,13.33815,0,0,0,4.37695-6.36279,85.2153,85.2153,0,0,0,2.3418-13.13281q1.1704-9.41675,3.665-14.813a23.41761,23.41761,0,0,1,7.35547-9.03516,20.17571,20.17571,0,0,1,9.79883-4.19922l1.98535,2.69776a23.86732,23.86732,0,0,0-4.70508,6.5166q-1.5498,3.30909-2.80566,14.22607-1.25538,10.919-4.792,16.39063A30.99622,30.99622,0,0,1,239.33714,97.54366Z"/><path class="cls-1" d="M328.884,95.45674q-12.77783,12.52223-19.69922,12.522a6.52921,6.52921,0,0,1-5.24316-2.62159,9.92872,9.92872,0,0,1-2.1377-6.48974q0-7.17774,7.68555-19.24121a28.348,28.348,0,0,1-8.24609,2.69775A58.58113,58.58113,0,0,1,290.8596,95.45674h-1.1709v-4.581a66.62417,66.62417,0,0,0,7.17676-8.85694q-4.377-1.93432-4.377-5.75195a16.42122,16.42122,0,0,1,2.67188-8.37353q2.67335-4.45386,7.35547-4.45411,3.97119,0,3.9707,4.07227,0,3.20655-2.291,9.1626,8.44922-.91626,14.76171-12.9292l4.63282-.20361L318.85569,76.572q-2.95312,8.24634-3.81738,11.22412a19.12888,19.12888,0,0,0-.86524,5.26855,5.39471,5.39471,0,0,0,.99219,3.41016,3.21318,3.21318,0,0,0,2.67285,1.27246,5.80487,5.80487,0,0,0,3.51172-1.24707q1.68018-1.24658,7.53418-6.897Z"/><path class="cls-1" d="M366.95921,95.45674a62.839,62.839,0,0,1-11.60645,9.3916,21.95633,21.95633,0,0,1-11.35058,3.02881,14.777,14.777,0,0,1-11.17383-4.42871q-4.251-4.42822-4.25-11.65674a29.24841,29.24841,0,0,1,7.48242-19.521q7.48242-8.729,16.59473-8.72949a11.25433,11.25433,0,0,1,7.584,2.44335,8.03742,8.03742,0,0,1,2.85059,6.41358q0,10.53661-22.39649,17.103,2.03467,9.92577,10.6377,9.92627a12.41,12.41,0,0,0,6.41406-1.80713q3.05419-1.80615,9.21387-8.01709Zm-26.67285-9.417q13.02978-3.665,13.03027-13.54,0-4.88671-3.5625-4.88672-3.36036,0-6.41406,5.11573Q340.28586,77.84468,340.28636,86.03975Z"/><path class="cls-1" d="M421.32249,95.45674q-8.14454,7.738-11.65625,10.07862a12.19913,12.19913,0,0,1-6.71973,2.34179q-8.04345,0-7.584-14.20215a52.52616,52.52616,0,0,1-9.3916,10.74073,14.0432,14.0432,0,0,1-8.88282,3.46142q-4.47948,0-7.60937-4.1997a16.75981,16.75981,0,0,1-3.13086-10.30762,27.65027,27.65027,0,0,1,4.19922-14.55811A34.522,34.522,0,0,1,381.3137,67.613q6.56543-4.27513,11.60547-4.27539a9.00434,9.00434,0,0,1,8.9082,5.85352l10.40332-5.752h2.85645l-4.49024,14.915q-3.46875,11.25074-3.46875,15.42432,0,4.37622,3.10352,4.376a6.94163,6.94163,0,0,0,4.375-2.11231q2.39063-2.11157,6.71582-6.439Zm-37.26074,2.79981q5.09033,0,9.5957-8.67871,4.50439-8.67847,4.50488-16.00879a6.99589,6.99589,0,0,0-1.27246-4.4541,4.13142,4.13142,0,0,0-3.41113-1.60352q-5.09034,0-9.64551,8.65332-4.55567,8.6543-4.55566,15.93262a6.96679,6.96679,0,0,0,1.34863,4.4541A4.19265,4.19265,0,0,0,384.06175,98.25655Z"/><path class="cls-1" d="M496.25022,95.45674a86.79113,86.79113,0,0,1-10.89258,9.31543,15.62481,15.62481,0,0,1-8.80664,3.105,6.60558,6.60558,0,0,1-5.31933-2.3164,9.33418,9.33418,0,0,1-1.959-6.23535q0-5.49756,2.74805-13.94727,2.74952-8.44921,2.749-10.28223a1.46268,1.46268,0,0,0-1.67968-1.6289,2.832,2.832,0,0,0-1.22071.35644,12.52514,12.52514,0,0,0-1.73047,1.01807A26.443,26.443,0,0,0,468.052,76.572q-1.11914,1.0188-2.34082,2.34179-1.32422,1.32423-2.64746,2.90186a11.60923,11.60923,0,0,0-2.64551,4.42871l-1.69336,7.28125-3.07715,12.01611-12.8955,2.33545,4.9375-20.97168q.55956-2.291,1.32324-6.71923a51.02354,51.02354,0,0,0,.76367-5.29395q0-1.73-1.1709-1.73047a2.42,2.42,0,0,0-1.01758.356,10.49668,10.49668,0,0,0-1.73047,1.06885q-1.12061.81518-2.39257,1.93457-1.374,1.22168-2.95215,2.7998-1.68018,1.67945-3.46192,3.71582a12.57253,12.57253,0,0,0-3.05371,6.41358q-.81591,4.37841-1.12011,7.83886-.35744,3.46216-.40723,7.73731l-11.30078,2.69775q-.40724-5.85278-.40723-9.77344a60.38472,60.38472,0,0,1,1.93457-16.2124,103.98684,103.98684,0,0,1,6.3125-16.11035l12.31836-2.39258a114.74245,114.74245,0,0,0-5.1416,16.03418Q449.87767,63.3381,457.15745,63.3376a5.172,5.172,0,0,1,4.30176,2.16309,9.10332,9.10332,0,0,1,1.65429,5.67578q0,1.62965-.50976,6.00635,8.606-8.60157,12.34863-11.22412a12.31633,12.31633,0,0,1,6.90039-2.6211,5.59469,5.59469,0,0,1,4.582,2.24024A8.87346,8.87346,0,0,1,488.218,71.28q0,5.44848-2.99707,14.002-2.99708,8.55394-2.9961,11.29883,0,2.84619,2.084,2.84668,1.31982,0,3.68359-1.75635a79.35779,79.35779,0,0,0,8.25781-8.06787Z"/><path class="cls-1" d="M529.94847,95.45674a73.13433,73.13433,0,0,1-12.14063,9.3916,19.896,19.896,0,0,1-9.95117,3.02881,10.637,10.637,0,0,1-8.78028-4.22509q-3.33544-4.22461-3.335-11.35108,0-10.68969,4.63282-25.65478a163.164,163.164,0,0,1,11.249-27.58936L524.553,34.27217a3.24425,3.24425,0,0,1,.916-.20361q1.4751,0,2.418,2.16357a14.88217,14.88217,0,0,1,.94141,5.82813,45.02279,45.02279,0,0,1-4.78516,20.10644q-4.78417,9.72291-14.96484,20.76807-.40869,5.29469-.40723,7.2793A13.11554,13.11554,0,0,0,510.3,97.23848a4.92569,4.92569,0,0,0,4.32715,2.59619,10.97958,10.97958,0,0,0,5.85351-1.98535,69.71292,69.71292,0,0,0,9.46778-8.24609Zm-19.4961-19.90283A62.095,62.095,0,0,0,520.9387,59.446q4.021-8.92089,4.02148-15.34326a6.96934,6.96934,0,0,0-.56054-3.03369q-.55957-1.14624-1.42481-1.14649-1.88379,0-5.47168,9.3794Q513.91428,58.68136,510.45237,75.55391Z"/><path class="cls-1" d="M575.65843,95.45674a17.0492,17.0492,0,0,1-5.03907,3.23242,11.56113,11.56113,0,0,1-3.86914.9419,11.7171,11.7171,0,0,1-7.27832-2.85059q-7.33008,11.09693-16.79785,11.09668a11.828,11.828,0,0,1-9.57031-4.42871q-3.665-4.42822-3.665-11.7583a27.31228,27.31228,0,0,1,8.24707-19.92822A26.763,26.763,0,0,1,557.385,63.43916a15.85663,15.85663,0,0,1,6.33691.9419,4.37339,4.37339,0,0,1,2.46875,2.21435,9.57506,9.57506,0,0,1,.458,3.20655q0,9.51929-5.19141,23.36426a7.97112,7.97112,0,0,0,5.44629,2.39257q3.40869,0,8.75489-5.95556Zm-16.79786-28.4541a6.13085,6.13085,0,0,0-2.18847-.30566q-6.61816,0-10.3584,6.92285a33.538,33.538,0,0,0-3.74219,16.187,16.23523,16.23523,0,0,0,1.62891,7.9917,5.01422,5.01422,0,0,0,4.53027,2.8501q3.61377,0,7.83985-6.668a20.35685,20.35685,0,0,1-4.78516-12.9292Q551.78538,72.90767,558.86057,67.00264Z"/><path class="cls-1" d="M625.594,95.45674a39.27877,39.27877,0,0,1-15.46679,9.97364q-4.22608,13.18578-10.71778,20.3125-6.49218,7.12719-13.77148,7.12744a8.58023,8.58023,0,0,1-6.416-2.49463,8.98089,8.98089,0,0,1-2.44336-6.56641q0-5.447,4.86035-9.77295,4.86036-4.32714,16.51856-8.34814l2.18848-10.02783a55.94249,55.94249,0,0,1-8.4502,8.06787,12.18978,12.18978,0,0,1-7.17676,2.5708,8.08875,8.08875,0,0,1-6.92285-3.97022q-2.69824-3.97046-2.69824-10.33349,0-10.38356,7.91309-19.47022,7.91308-9.0857,16.81835-9.08594a11.58213,11.58213,0,0,1,8.752,4.17383q2.28954-.813,5.9541-2.44287l3.6123-1.6289h1.1709a90.845,90.845,0,0,0-3.04785,11.70752l-4.77246,25.502q6.87012-2.59571,14.0957-11.14746Zm-28.50586,14.71094q-16.44286,5.90406-16.4414,13.6416a5.22,5.22,0,0,0,1.374,3.7417,4.62823,4.62823,0,0,0,3.5127,1.45068q3.665,0,6.3623-4.63232Q594.594,119.73677,597.08811,110.16768Zm-4.27539-13.03125q3.61377,0,6.41309-4.27539a34.05862,34.05862,0,0,0,4.35254-10.84229,47.54136,47.54136,0,0,0,1.55273-9.11181,6.28036,6.28036,0,0,0-1.19629-3.94483,3.62955,3.62955,0,0,0-2.97851-1.55273q-5.395,0-9.416,7.2793a30.30657,30.30657,0,0,0-4.02148,14.8125,9.5236,9.5236,0,0,0,1.45019,5.57373A4.48674,4.48674,0,0,0,592.81272,97.13643Z"/><path class="cls-1" d="M148.37852,105.676a7.66428,7.66428,0,0,1-.14,1.45c-2.41.91-4.88,1.71-7.38,2.42a43.99638,43.99638,0,0,0-5.45-8.78,7.327,7.327,0,0,1,5.54-2.51A7.42594,7.42594,0,0,1,148.37852,105.676Z"/><path class="cls-1" d="M1.09447,50.506A19.92042,19.92042,0,0,0,6.481,60.29729a18.56209,18.56209,0,0,0,6.92,4.405c1.087.38323,1.34349.95179,1.21151,2.065-.99637,8.40444-.34994,16.63166,3.4647,24.31325,4.20417,8.466,11.25843,13.37228,20.36019,15.48821a71.12534,71.12534,0,0,0,28.67456.8055,54.61185,54.61185,0,0,0,.425,5.47729A16.70719,16.70719,0,0,0,86.14538,126.442a38.89815,38.89815,0,0,0,15.49311-6.42558c1.76207-1.16542,3.373-2.55726,5.09652-3.78446a2.74652,2.74652,0,0,1,1.58448-.56171c26.22127,1.48611,49.52513-5.9636,69.80821-22.71324.09244-.07635.17568-.19116.2815-.21933.52383-.13943,1.14921-.49347,1.56079-.32829.746.29937.53288,1.05416.27978,1.66258-1.37928,3.31557-2.56793,6.72923-4.191,9.92164-13.44725,26.44974-34.50709,43.64589-63.5407,49.86122-31.783,6.8039-59.98815-1.30473-83.82017-23.45206C14.17891,116.9101,5.366,100.06027,1.61016,80.608A92.21129,92.21129,0,0,1,.85055,50.89339C.85886,50.83041.92251,50.77473,1.09447,50.506Z"/><path class="cls-1" d="M20.76051,61.03392c-4.59011-.24313-8.57533-1.742-11.57007-5.29432a13.67843,13.67843,0,0,1-3.341-7.93347A14.44927,14.44927,0,0,1,14.8473,32.99779a14.18339,14.18339,0,0,1,11.19586.17907c3.66988,1.57428,6.04668,4.47481,7.814,7.84582l8.53344-5.49433c.58733.71406.97943,1.21025,1.39184,1.68894,2.20059,2.55424,5.20874,3.30186,8.35788,3.58936a23.51538,23.51538,0,0,0,19.71473-7.06183,1.2518,1.2518,0,0,1,1.57289-.32508c2.35925.96216,4.72851,1.89976,7.21758,2.896.29042-.83953.583-1.69326.88089-2.54513a14.46317,14.46317,0,1,1,18.99132,18.09678c-1.03564.40762-2.10014.74191-3.29812,1.16155.41442.90263.81117,1.75474,1.19807,2.61129a40.93167,40.93167,0,0,1,2.46871,27.495A4.864,4.864,0,0,1,99.69418,85.275a23.19631,23.19631,0,0,1-18.17983,7.08157,8.62946,8.62946,0,0,0-3.13631.64355,16.38139,16.38139,0,0,0-9.12356,7.889,2.05328,2.05328,0,0,1-1.58769,1.21192,63.38,63.38,0,0,1-29.90974-1.00831c-8.83891-2.514-14.56111-8.31508-17.01761-17.21635A41.71656,41.71656,0,0,1,20.579,62.42552c.06708-.27115.12843-.54419.17815-.81893A4.56171,4.56171,0,0,0,20.76051,61.03392Z"/><path class="cls-1" d="M105.555,86.30584c6.13288,2.4178,9.1099,11.12818,5.73375,16.655-5.76161,9.4318-14.144,15.33541-24.69866,18.22856-6.54757,1.79476-13.68074-3.43507-14.25832-10.3029a12.13446,12.13446,0,0,1,6.96111-12.18785c1.76649-.865,3.5903-.561,5.39261-.68635a28.13179,28.13179,0,0,0,19.20522-9.10106,8.322,8.322,0,0,0,.93329-1.24053C105.10044,87.23568,105.31459,86.76105,105.555,86.30584Z"/><path class="cls-1" d="M156.231,43.63062a10.50978,10.50978,0,0,1-1.16873,1.532q-2.32151,1.99047-4.72144,3.88872a2.23107,2.23107,0,0,0-.92369,2.18088c.22056,2.02548.42579,4.05608.51658,6.09a2.084,2.084,0,0,1-.63381,1.61717,1.99478,1.99478,0,0,1-1.709-.13136c-1.76376-1.01624-3.47322-2.13173-5.16248-3.27016a2.29316,2.29316,0,0,0-2.45975-.22185c-1.8173.82446-3.65049,1.6243-5.52179,2.313a2.21356,2.21356,0,0,1-1.8388-.07874,2.19572,2.19572,0,0,1-.3515-1.80121c.40027-1.91236.93426-3.79806,1.45655-5.683a2.49059,2.49059,0,0,0-.62911-2.62343c-1.344-1.42276-2.6332-2.90574-3.8348-4.44956a2.24339,2.24339,0,0,1-.42591-1.7947c.14579-.41159.96732-.75888,1.52345-.81871,2.0246-.21781,4.06191-.35225,6.09764-.41749a2.27582,2.27582,0,0,0,2.07626-1.32871c.97172-1.699,1.95656-3.39527,3.04437-5.02013a2.22253,2.22253,0,0,1,1.53313-1.02843c.49177.04117,1.10379.72253,1.348,1.26517.81829,1.81811,1.54945,3.68092,2.20484,5.56459a2.28364,2.28364,0,0,0,1.87359,1.60814c1.98962.4337,3.98569.85252,5.94617,1.39631A7.15653,7.15653,0,0,1,156.231,43.63062Z"/><path class="cls-1" d="M67.27389,31.15687a18.74633,18.74633,0,0,1-17.54521,4.00759,4.69013,4.69013,0,0,1-3.27955-3.24213c-2.15457-6.3812.69725-15.50366,6.06659-19.48292a1.58118,1.58118,0,0,1,2.36835.65028C57.11047,22.498,59.09229,25.40636,67.27389,31.15687Z"/><path class="cls-1" d="M112.14474,110.52877c5.67725-5.9574,6.97523-12.8115,4.3273-20.45711,5.55159.56947,17.61917,10.99229,20.7571,17.92175C133.8995,109.66707,115.79885,111.55663,112.14474,110.52877Z"/><path class="cls-1" d="M17.565,27.03957A21.49569,21.49569,0,0,0,4.77465,33.95914c.5039-1.36929.9913-2.74491,1.51453-4.10677a88.60429,88.60429,0,0,1,9.00374-17.3777,2.13861,2.13861,0,0,1,1.51836-.96434c.93611.092.76366,1.00245.76126,1.72831C17.55753,17.77788,17.565,22.3172,17.565,27.03957Z"/><path class="cls-1" d="M55.75582.00035A3.62838,3.62838,0,0,1,59.36163,3.667a3.71563,3.71563,0,1,1-7.43093-.06974A3.70055,3.70055,0,0,1,55.75582.00035Z"/></g></g></svg>