<svg xmlns="http://www.w3.org/2000/svg" viewBox="0 0 180.48495 156.19355">
<defs>
<style>
.cls-1{fill:#fff;}</style>
</defs>
<title>
Asset 3</title>
<g id="Layer_2" data-name="Layer 2">
<g id="Layer_8" data-name="Layer 8">
<path class="cls-1" d="M148.37852,105.676a7.66428,7.66428,0,0,1-.14,1.45c-2.41.91-4.88,1.71-7.38,2.42a43.99638,43.99638,0,0,0-5.45-8.78,7.327,7.327,0,0,1,5.54-2.51A7.42594,7.42594,0,0,1,148.37852,105.676Z"/>
<path class="cls-1" d="M1.09447,50.506A19.92042,19.92042,0,0,0,6.481,60.29729a18.56209,18.56209,0,0,0,6.92,4.405c1.087.38323,1.34349.95179,1.21151,2.065-.99637,8.40444-.34994,16.63166,3.4647,24.31325,4.20417,8.466,11.25843,13.37228,20.36019,15.48821a71.12534,71.12534,0,0,0,28.67456.8055,54.61185,54.61185,0,0,0,.425,5.47729A16.70719,16.70719,0,0,0,86.14538,126.442a38.89815,38.89815,0,0,0,15.49311-6.42558c1.76207-1.16542,3.373-2.55726,5.09652-3.78446a2.74652,2.74652,0,0,1,1.58448-.56171c26.22127,1.48611,49.52513-5.9636,69.80821-22.71324.09244-.07635.17568-.19116.2815-.21933.52383-.13943,1.14921-.49347,1.56079-.32829.746.29937.53288,1.05416.27978,1.66258-1.37928,3.31557-2.56793,6.72923-4.191,9.92164-13.44725,26.44974-34.50709,43.64589-63.5407,49.86122-31.783,6.8039-59.98815-1.30473-83.82017-23.45206C14.17891,116.9101,5.366,100.06027,1.61016,80.608A92.21129,92.21129,0,0,1,.85055,50.89339C.85886,50.83041.92251,50.77473,1.09447,50.506Z"/>
<path class="cls-1" d="M20.76051,61.03392c-4.59011-.24313-8.57533-1.742-11.57007-5.29432a13.67843,13.67843,0,0,1-3.341-7.93347A14.44927,14.44927,0,0,1,14.8473,32.99779a14.18339,14.18339,0,0,1,11.19586.17907c3.66988,1.57428,6.04668,4.47481,7.814,7.84582l8.53344-5.49433c.58733.71406.97943,1.21025,1.39184,1.68894,2.20059,2.55424,5.20874,3.30186,8.35788,3.58936a23.51538,23.51538,0,0,0,19.71473-7.06183,1.2518,1.2518,0,0,1,1.57289-.32508c2.35925.96216,4.72851,1.89976,7.21758,2.896.29042-.83953.583-1.69326.88089-2.54513a14.46317,14.46317,0,1,1,18.99132,18.09678c-1.03564.40762-2.10014.74191-3.29812,1.16155.41442.90263.81117,1.75474,1.19807,2.61129a40.93167,40.93167,0,0,1,2.46871,27.495A4.864,4.864,0,0,1,99.69418,85.275a23.19631,23.19631,0,0,1-18.17983,7.08157,8.62946,8.62946,0,0,0-3.13631.64355,16.38139,16.38139,0,0,0-9.12356,7.889,2.05328,2.05328,0,0,1-1.58769,1.21192,63.38,63.38,0,0,1-29.90974-1.00831c-8.83891-2.514-14.56111-8.31508-17.01761-17.21635A41.71656,41.71656,0,0,1,20.579,62.42552c.06708-.27115.12843-.54419.17815-.81893A4.56171,4.56171,0,0,0,20.76051,61.03392Z"/>
<path class="cls-1" d="M105.555,86.30584c6.13288,2.4178,9.1099,11.12818,5.73375,16.655-5.76161,9.4318-14.144,15.33541-24.69866,18.22856-6.54757,1.79476-13.68074-3.43507-14.25832-10.3029a12.13446,12.13446,0,0,1,6.96111-12.18785c1.76649-.865,3.5903-.561,5.39261-.68635a28.13179,28.13179,0,0,0,19.20522-9.10106,8.322,8.322,0,0,0,.93329-1.24053C105.10044,87.23568,105.31459,86.76105,105.555,86.30584Z"/>
<path class="cls-1" d="M156.231,43.63062a10.50978,10.50978,0,0,1-1.16873,1.532q-2.32151,1.99047-4.72144,3.88872a2.23107,2.23107,0,0,0-.92369,2.18088c.22056,2.02548.42579,4.05608.51658,6.09a2.084,2.084,0,0,1-.63381,1.61717,1.99478,1.99478,0,0,1-1.709-.13136c-1.76376-1.01624-3.47322-2.13173-5.16248-3.27016a2.29316,2.29316,0,0,0-2.45975-.22185c-1.8173.82446-3.65049,1.6243-5.52179,2.313a2.21356,2.21356,0,0,1-1.8388-.07874,2.19572,2.19572,0,0,1-.3515-1.80121c.40027-1.91236.93426-3.79806,1.45655-5.683a2.49059,2.49059,0,0,0-.62911-2.62343c-1.344-1.42276-2.6332-2.90574-3.8348-4.44956a2.24339,2.24339,0,0,1-.42591-1.7947c.14579-.41159.96732-.75888,1.52345-.81871,2.0246-.21781,4.06191-.35225,6.09764-.41749a2.27582,2.27582,0,0,0,2.07626-1.32871c.97172-1.699,1.95656-3.39527,3.04437-5.02013a2.22253,2.22253,0,0,1,1.53313-1.02843c.49177.04117,1.10379.72253,1.348,1.26517.81829,1.81811,1.54945,3.68092,2.20484,5.56459a2.28364,2.28364,0,0,0,1.87359,1.60814c1.98962.4337,3.98569.85252,5.94617,1.39631A7.15653,7.15653,0,0,1,156.231,43.63062Z"/>
<path class="cls-1" d="M67.27389,31.15687a18.74633,18.74633,0,0,1-17.54521,4.00759,4.69013,4.69013,0,0,1-3.27955-3.24213c-2.15457-6.3812.69725-15.50366,6.06659-19.48292a1.58118,1.58118,0,0,1,2.36835.65028C57.11047,22.498,59.09229,25.40636,67.27389,31.15687Z"/>
<path class="cls-1" d="M112.14474,110.52877c5.67725-5.9574,6.97523-12.8115,4.3273-20.45711,5.55159.56947,17.61917,10.99229,20.7571,17.92175C133.8995,109.66707,115.79885,111.55663,112.14474,110.52877Z"/>
<path class="cls-1" d="M17.565,27.03957A21.49569,21.49569,0,0,0,4.77465,33.95914c.5039-1.36929.9913-2.74491,1.51453-4.10677a88.60429,88.60429,0,0,1,9.00374-17.3777,2.13861,2.13861,0,0,1,1.51836-.96434c.93611.092.76366,1.00245.76126,1.72831C17.55753,17.77788,17.565,22.3172,17.565,27.03957Z"/>
<path class="cls-1" d="M55.75582.00035A3.62838,3.62838,0,0,1,59.36163,3.667a3.71563,3.71563,0,1,1-7.43093-.06974A3.70055,3.70055,0,0,1,55.75582.00035Z"/>
</g>
</g>
</svg>
